<?xml version="1.0" encoding="UTF-8" standalone="no"?>
<!-- Created with Inkscape (http://www.inkscape.org/) -->

<svg
   xmlns:dc="http://purl.org/dc/elements/1.1/"
   xmlns:cc="http://creativecommons.org/ns#"
   xmlns:rdf="http://www.w3.org/1999/02/22-rdf-syntax-ns#"
   xmlns:svg="http://www.w3.org/2000/svg"
   xmlns="http://www.w3.org/2000/svg"
   xmlns:sodipodi="http://sodipodi.sourceforge.net/DTD/sodipodi-0.dtd"
   xmlns:inkscape="http://www.inkscape.org/namespaces/inkscape"
   sodipodi:docname="13kolecka.svg"
   inkscape:version="0.91 r"
   version="1.1"
   id="svg2"
   viewBox="0 0 190.36705 75.843098"
   height="21.404608mm"
   width="53.725811mm">
  <sodipodi:namedview
     inkscape:window-maximized="1"
     inkscape:window-y="25"
     inkscape:window-x="0"
     inkscape:window-height="716"
     inkscape:window-width="1366"
     showgrid="false"
     inkscape:current-layer="layer1"
     inkscape:document-units="px"
     inkscape:cy="8.99138"
     inkscape:cx="-10.243662"
     inkscape:zoom="2.1454769"
     inkscape:pageshadow="2"
     inkscape:pageopacity="0.0"
     borderopacity="1.0"
     bordercolor="#666666"
     pagecolor="#ffffff"
     id="base"
     fit-margin-top="0"
     fit-margin-left="0"
     fit-margin-right="0"
     fit-margin-bottom="0" />
  <defs
     id="defs4">
    <marker
       inkscape:stockid="Arrow1Lend"
       orient="auto"
       refY="0"
       refX="0"
       id="marker7632"
       style="overflow:visible"
       inkscape:isstock="true">
      <path
         id="path7634"
         d="M 0,0 5,-5 -12.5,0 5,5 0,0 Z"
         style="fill:#000000;fill-opacity:1;fill-rule:evenodd;stroke:#000000;stroke-width:1pt;stroke-opacity:1"
         transform="matrix(-0.8,0,0,-0.8,-10,0)"
         inkscape:connector-curvature="0" />
    </marker>
    <marker
       inkscape:stockid="Tail"
       orient="auto"
       refY="0"
       refX="0"
       id="Tail"
       style="overflow:visible"
       inkscape:isstock="true">
      <g
         id="g5732"
         transform="scale(-1.2,-1.2)"
         style="fill:#000000;fill-opacity:1;stroke:#000000;stroke-opacity:1">
        <path
           id="path5734"
           d="M -3.8048674,-3.9585227 0.54352094,0"
           style="fill:#000000;fill-opacity:1;fill-rule:evenodd;stroke:#000000;stroke-width:0.80000001;stroke-linecap:round;stroke-opacity:1"
           inkscape:connector-curvature="0" />
        <path
           id="path5736"
           d="M -1.2866832,-3.9585227 3.0617053,0"
           style="fill:#000000;fill-opacity:1;fill-rule:evenodd;stroke:#000000;stroke-width:0.80000001;stroke-linecap:round;stroke-opacity:1"
           inkscape:connector-curvature="0" />
        <path
           id="path5738"
           d="M 1.3053582,-3.9585227 5.6537466,0"
           style="fill:#000000;fill-opacity:1;fill-rule:evenodd;stroke:#000000;stroke-width:0.80000001;stroke-linecap:round;stroke-opacity:1"
           inkscape:connector-curvature="0" />
        <path
           id="path5740"
           d="M -3.8048674,4.1775838 0.54352094,0.21974226"
           style="fill:#000000;fill-opacity:1;fill-rule:evenodd;stroke:#000000;stroke-width:0.80000001;stroke-linecap:round;stroke-opacity:1"
           inkscape:connector-curvature="0" />
        <path
           id="path5742"
           d="M -1.2866832,4.1775838 3.0617053,0.21974226"
           style="fill:#000000;fill-opacity:1;fill-rule:evenodd;stroke:#000000;stroke-width:0.80000001;stroke-linecap:round;stroke-opacity:1"
           inkscape:connector-curvature="0" />
        <path
           id="path5744"
           d="M 1.3053582,4.1775838 5.6537466,0.21974226"
           style="fill:#000000;fill-opacity:1;fill-rule:evenodd;stroke:#000000;stroke-width:0.80000001;stroke-linecap:round;stroke-opacity:1"
           inkscape:connector-curvature="0" />
      </g>
    </marker>
    <marker
       inkscape:stockid="Arrow1Lend"
       orient="auto"
       refY="0"
       refX="0"
       id="marker7476"
       style="overflow:visible"
       inkscape:isstock="true">
      <path
         id="path7478"
         d="M 0,0 5,-5 -12.5,0 5,5 0,0 Z"
         style="fill:#000000;fill-opacity:1;fill-rule:evenodd;stroke:#000000;stroke-width:1pt;stroke-opacity:1"
         transform="matrix(-0.8,0,0,-0.8,-10,0)"
         inkscape:connector-curvature="0" />
    </marker>
    <marker
       inkscape:stockid="Arrow2Lend"
       orient="auto"
       refY="0"
       refX="0"
       id="Arrow2Lend"
       style="overflow:visible"
       inkscape:isstock="true">
      <path
         id="path5717"
         style="fill:#000000;fill-opacity:1;fill-rule:evenodd;stroke:#000000;stroke-width:0.625;stroke-linejoin:round;stroke-opacity:1"
         d="M 8.7185878,4.0337352 -2.2072895,0.01601326 8.7185884,-4.0017078 c -1.7454984,2.3720609 -1.7354408,5.6174519 -6e-7,8.035443 z"
         transform="matrix(-1.1,0,0,-1.1,-1.1,0)"
         inkscape:connector-curvature="0" />
    </marker>
    <marker
       inkscape:stockid="Arrow1Lend"
       orient="auto"
       refY="0"
       refX="0"
       id="Arrow1Lend"
       style="overflow:visible"
       inkscape:isstock="true">
      <path
         id="path5699"
         d="M 0,0 5,-5 -12.5,0 5,5 0,0 Z"
         style="fill:#000000;fill-opacity:1;fill-rule:evenodd;stroke:#000000;stroke-width:1pt;stroke-opacity:1"
         transform="matrix(-0.8,0,0,-0.8,-10,0)"
         inkscape:connector-curvature="0" />
    </marker>
  </defs>
  <metadata
     id="metadata7">
    <rdf:RDF>
      <cc:Work
         rdf:about="">
        <dc:format>image/svg+xml</dc:format>
        <dc:type
           rdf:resource="http://purl.org/dc/dcmitype/StillImage" />
        <dc:title></dc:title>
      </cc:Work>
    </rdf:RDF>
  </metadata>
  <g
     id="layer1"
     inkscape:groupmode="layer"
     inkscape:label="Vrstva 1"
     transform="translate(-317.4925,-614.21108)">
    <g
       inkscape:label="Gear6"
       transform="translate(499.11344,837.51765)"
       id="g4614" />
    <g
       id="g5021"
       transform="matrix(0.2999798,0,0,0.30244915,425.46528,646.13213)"
       inkscape:label="Gear31">
      <path
         id="path5023"
         d="m 92.18285,-4.84081 4.86039,-0.25523 1.50617,0.09818 6.44073,1.68908 0,6.61756 -6.44073,1.68908 -1.50617,0.09818 -4.86039,-0.25523 -0.91254,8.97375 4.81228,0.72838 1.45557,0.39936 5.96888,2.95101 -1.33211,6.4821 -6.64889,0.358 -1.49511,-0.20702 -4.70951,-1.2284 -2.70027,8.60636 4.56715,1.68217 1.34539,0.6842 5.25265,4.09213 -2.60967,6.08126 -6.58485,-0.98775 -1.42283,-0.50374 -4.36584,-2.15128 -4.37744,7.88664 4.13504,2.5671 1.18013,0.94101 4.32139,5.06571 -3.78041,5.43145 -6.25122,-2.29304 -1.2923,-0.77985 -3.84342,-2.98607 -5.8754,6.84402 3.53364,3.34693 0.96654,1.1593 3.21321,5.83191 -4.79636,4.55928 -5.66168,-3.50446 -1.10886,-1.02403 -3.16366,-3.69862 -7.13282,5.52122 2.78758,3.98973 0.71339,1.33014 1.97348,6.35934 -5.61595,3.50045 -4.84034,-4.57242 -0.88003,-1.22627 -2.35437,-4.25975 -8.09822,3.97237 1.92738,4.46919 0.43103,1.44652 0.65296,6.62643 -6.20563,2.29831 -3.82084,-5.45317 -0.61517,-1.37832 -1.44869,-4.64649 -8.73208,2.2609 0.98829,4.76569 0.13103,1.50367 -0.6943,6.62222 -6.54125,1.00209 L 9.98289,98.16979 9.65777,96.69585 9.17406,91.85286 0.16561,92.30972 0.17434,97.1768 0,98.67606 l -2.01313,6.34691 -6.60907,-0.33517 -1.36069,-6.51801 -0.02177,-1.50921 0.50108,-4.84123 -8.91601,-1.36588 -0.97118,4.76921 -0.47258,1.43348 -3.24954,5.81174 -6.40631,-1.6587 -0.02077,-6.65849 0.28248,-1.4827 1.46535,-4.64126 -8.45855,-3.1327 -1.91134,4.47608 -0.75145,1.30901 -4.35292,5.03865 -5.94128,-2.91434 1.31999,-6.52637 0.57517,-1.39548 2.36963,-4.25128 -7.65479,-4.77127 -2.77324,3.99971 -0.99958,1.13095 -5.27809,4.05927 -5.233,-4.05065 2.60672,-6.12706 0.8443,-1.25115 3.1769,-3.68724 -6.53765,-6.21451 -3.52161,3.35959 -1.20677,0.90658 -5.98717,2.91371 -4.3105,-5.02113 3.78673,-5.47691 1.07887,-1.05558 3.85411,-2.97226 -5.15285,-7.40331 -4.1258,2.58192 -1.36457,0.64511 -6.45113,1.64885 -3.21152,-5.78604 4.81171,-4.60254 1.26927,-0.81679 4.37353,-2.13559 -3.5571,-8.28903 -4.56108,1.69855 -1.46649,0.35722 -6.65099,0.31649 -1.98106,-6.31407 5.6397,-3.53973 1.40771,-0.54458 4.71389,-1.21149 -1.81571,-8.83539 -4.80964,0.74565 -1.50837,0.0547 -6.57856,-1.02882 -0.66949,-6.58361 6.2368,-2.33201 1.48851,-0.25005 4.86127,-0.2378 0,-9.02002 -4.86127,-0.2378 -1.48851,-0.25005 -6.2368,-2.33201 0.66949,-6.58361 6.57856,-1.02882 1.50837,0.0547 4.80964,0.74565 1.81571,-8.83539 -4.71389,-1.21149 -1.40771,-0.54458 -5.6397,-3.53973 1.98106,-6.31407 6.65099,0.31649 1.46649,0.35722 4.56108,1.69855 3.5571,-8.28903 -4.37353,-2.13559 -1.26927,-0.81679 -4.81171,-4.60254 3.21152,-5.78604 6.45113,1.64885 1.36457,0.64511 4.1258,2.58192 5.15285,-7.40331 -3.85411,-2.97226 -1.07887,-1.05558 -3.78673,-5.47691 4.3105,-5.02113 5.98717,2.91371 1.20677,0.90658 3.52161,3.35959 6.53765,-6.21451 -3.1769,-3.68724 -0.8443,-1.25115 -2.60672,-6.12706 5.233,-4.05065 5.27809,4.05927 0.99958,1.13095 2.77324,3.99971 7.65479,-4.77127 -2.36963,-4.25128 -0.57517,-1.39548 -1.31999,-6.52637 5.94128,-2.91434 4.35292,5.03865 0.75145,1.30901 1.91134,4.47608 8.45855,-3.1327 -1.46535,-4.64126 -0.28248,-1.4827 0.02077,-6.65849 6.40631,-1.6587 3.24954,5.81174 0.47258,1.43348 0.97118,4.76921 8.91601,-1.36588 -0.50108,-4.84123 0.02177,-1.50921 1.36069,-6.51801 6.60907,-0.33517 2.01313,6.34691 0.17434,1.49926 -0.00873,4.86708 9.00845,0.45686 0.48371,-4.84299 0.32512,-1.47394 2.64491,-6.11068 6.54125,1.00209 0.6943,6.62222 -0.13103,1.50367 -0.98829,4.76569 8.73208,2.2609 1.44869,-4.64649 0.61517,-1.37832 3.82084,-5.45317 6.20563,2.29831 -0.65296,6.62643 -0.43103,1.44652 -1.92738,4.46919 8.09822,3.97237 2.35437,-4.25975 0.88003,-1.22627 4.84034,-4.57242 5.61595,3.50045 -1.97348,6.35934 -0.71339,1.33014 -2.78758,3.98973 7.13282,5.52122 3.16366,-3.69862 1.10886,-1.02403 5.66168,-3.50446 4.79636,4.55928 -3.21321,5.83191 -0.96654,1.1593 -3.53364,3.34693 5.8754,6.84402 3.84342,-2.98607 1.2923,-0.77985 6.25122,-2.29304 3.78041,5.43145 -4.32139,5.06571 -1.18013,0.94101 -4.13504,2.5671 4.37744,7.88664 4.36584,-2.15128 1.42283,-0.50374 6.58485,-0.98775 2.60967,6.08126 -5.25265,4.09213 -1.34539,0.6842 -4.56715,1.68217 2.70027,8.60636 4.70951,-1.2284 1.49511,-0.20702 6.64889,0.358 1.33211,6.4821 -5.96888,2.95101 -1.45557,0.39936 -4.81228,0.72838 z"
         style="fill:none;stroke:#000000;stroke-width:1"
         inkscape:connector-curvature="0" />
    </g>
    <g
       inkscape:label="Gear10"
       transform="matrix(0.2999798,0,0,0.30244915,387.6883,673.15719)"
       id="g5206">
      <path
         inkscape:connector-curvature="0"
         style="fill:none;stroke:#000000;stroke-width:1"
         d="m 37.63367,-6.53697 6.57143,-1.14146 2.95354,0.20923 10.06844,4.6642 0,5.61 L 47.15864,7.4692 44.2051,7.67843 37.63367,6.53697 34.28861,16.832 l 5.98733,2.93913 2.26649,1.90532 5.40399,9.69149 -3.29748,4.53858 -10.88708,-2.14466 -2.51245,-1.56678 -4.64547,-4.78605 -8.75747,6.36268 3.11627,5.89708 0.71371,2.87364 -1.3246,11.01696 -5.33542,1.73359 -7.54723,-8.13434 -1.11169,-2.74433 -0.94509,-6.60253 -10.82484,0 -0.94509,6.60253 -1.11169,2.74433 -7.54723,8.13434 -5.33542,-1.73359 -1.3246,-11.01696 0.71371,-2.87364 3.11627,-5.89708 -8.75747,-6.36268 -4.64547,4.78605 -2.51245,1.56678 -10.88708,2.14466 -3.29748,-4.53858 5.40399,-9.69149 2.26649,-1.90532 5.98733,-2.93913 -3.34506,-10.29503 -6.57143,1.14146 -2.95354,-0.20923 -10.06844,-4.6642 0,-5.61 10.06844,-4.6642 2.95354,-0.20923 6.57143,1.14146 3.34506,-10.29503 -5.98733,-2.93913 -2.26649,-1.90532 -5.40399,-9.69149 3.29748,-4.53858 10.88708,2.14466 2.51245,1.56678 4.64547,4.78605 8.75747,-6.36268 -3.11627,-5.89708 -0.71371,-2.87364 1.3246,-11.01696 5.33542,-1.73359 7.54723,8.13434 1.11169,2.74433 0.94509,6.60253 10.82484,0 0.94509,-6.60253 1.11169,-2.74433 7.54723,-8.13434 5.33542,1.73359 1.3246,11.01696 -0.71371,2.87364 -3.11627,5.89708 8.75747,6.36268 4.64547,-4.78605 2.51245,-1.56678 10.88708,-2.14466 3.29748,4.53858 -5.40399,9.69149 -2.26649,1.90532 -5.98733,2.93913 z"
         id="path5208" />
    </g>
    <g
       inkscape:label="Gear25"
       transform="matrix(0.2999798,0,0,0.30244915,351.9491,646.92234)"
       id="g5520">
      <path
         inkscape:connector-curvature="0"
         style="fill:none;stroke:#000000;stroke-width:1"
         d="m 87.58822,-6.82253 1.87482,-0.14603 5.84149,0.97251 7.79122,3.24687 0,5.49836 -7.79122,3.24687 -5.84149,0.97251 -1.87482,-0.14603 -1.05506,8.35159 1.85225,0.3248 5.41611,2.39468 6.73899,5.08246 -1.36739,5.32562 -8.35391,1.20727 -5.89982,-0.51076 -1.77961,-0.6077 -3.09886,7.82683 1.71327,0.77523 4.65043,3.66638 5.26331,6.5987 -2.64886,4.81825 -8.39169,-0.90819 -5.58745,-1.96194 -1.57257,-1.03118 -4.94796,6.81028 1.46666,1.17695 3.59253,4.70771 3.45693,7.70032 -3.76389,4.00814 -7.9022,-2.96659 -4.92399,-3.28985 -1.26672,-1.38986 -6.48616,5.36581 1.12789,1.50472 2.30891,5.45323 1.43332,8.31811 -4.64242,2.94617 -6.91617,-4.83859 -3.95115,-4.41103 -0.88128,-1.66122 -7.6168,3.5842 0.71824,1.73794 0.88021,5.8561 -0.68034,8.41324 -5.22926,1.69908 -5.49558,-6.40655 -2.73003,-5.25506 -0.44046,-1.8282 -8.26887,1.57737 0.26347,1.86196 -0.6038,5.89103 -2.75125,7.97972 -5.48751,0.34524 L 0,95.49297 l -1.33738,-5.7689 0.02803,-1.8803 -8.40136,-0.52857 -0.20786,1.86899 -2.04987,5.55579 -4.64929,7.04481 -5.40097,-1.03029 -1.72943,-8.26162 0.1393,-5.92025 0.49475,-1.81426 -8.00596,-2.60129 -0.66613,1.75857 -3.36714,4.87146 -6.25519,5.66726 -4.97507,-2.34109 0.37948,-8.43216 1.60723,-5.69961 0.9304,-1.63421 -7.10752,-4.51058 -1.08254,1.53767 -4.47284,3.88104 -7.46807,3.93361 -4.23656,-3.50479 2.46456,-8.07287 2.97417,-5.12085 1.30758,-1.35149 -5.76249,-6.13644 -1.43093,1.22014 -5.29749,2.64677 -8.2117,1.95279 -3.23186,-4.44827 4.39477,-7.20634 4.15424,-4.22032 1.6026,-0.98385 -4.05538,-7.37672 -1.68942,0.82595 -5.78928,1.24618 -8.43935,-0.15073 -2.02408,-5.11225 6.04884,-5.887 5.07328,-3.05461 1.79693,-0.55439 -2.09347,-8.15351 -1.84174,0.37987 -5.91731,-0.23271 -8.13673,-2.24477 -0.68913,-5.45501 7.32285,-4.19777 5.67354,-1.69697 1.87834,-0.09009 0,-8.41798 -1.87834,-0.09009 -5.67354,-1.69697 -7.32285,-4.19777 0.68913,-5.45501 8.13673,-2.24477 5.91731,-0.23271 1.84174,0.37987 2.09347,-8.15351 -1.79693,-0.55439 -5.07328,-3.05461 -6.04884,-5.887 2.02408,-5.11225 8.43935,-0.15073 5.78928,1.24618 1.68942,0.82595 4.05538,-7.37672 -1.6026,-0.98385 -4.15424,-4.22032 -4.39477,-7.20634 3.23186,-4.44827 8.2117,1.95279 5.29749,2.64677 1.43093,1.22014 5.76249,-6.13644 -1.30758,-1.35149 -2.97417,-5.12085 -2.46456,-8.07287 4.23656,-3.50479 7.46807,3.93361 4.47284,3.88104 1.08254,1.53767 7.10752,-4.51058 -0.9304,-1.63421 -1.60723,-5.69961 -0.37948,-8.43216 4.97507,-2.34109 6.25519,5.66726 3.36714,4.87146 0.66613,1.75857 8.00596,-2.60129 -0.49475,-1.81426 -0.1393,-5.92025 1.72943,-8.26162 5.40097,-1.03029 4.64929,7.04481 2.04987,5.55579 0.20786,1.86899 8.40136,-0.52857 -0.02803,-1.8803 1.33738,-5.7689 3.72968,-7.57197 5.48751,0.34524 2.75125,7.97972 0.6038,5.89103 -0.26347,1.86196 8.26887,1.57737 0.44046,-1.8282 2.73003,-5.25506 5.49558,-6.40655 5.22926,1.69908 0.68034,8.41324 -0.88021,5.8561 -0.71824,1.73794 7.6168,3.5842 0.88128,-1.66122 3.95115,-4.41103 6.91617,-4.83859 4.64242,2.94617 -1.43332,8.31811 -2.30891,5.45323 -1.12789,1.50472 6.48616,5.36581 1.26672,-1.38986 4.92399,-3.28985 7.9022,-2.96659 3.76389,4.00814 -3.45693,7.70032 -3.59253,4.70771 -1.46666,1.17695 4.94796,6.81028 1.57257,-1.03118 5.58745,-1.96194 8.39169,-0.90819 2.64886,4.81825 -5.26331,6.5987 -4.65043,3.66638 -1.71327,0.77523 3.09886,7.82683 1.77961,-0.6077 5.89982,-0.51076 8.35391,1.20727 1.36739,5.32562 -6.73899,5.08246 -5.41611,2.39468 -1.85225,0.3248 z"
         id="path5522" />
    </g>
    <g
       inkscape:label="Gear10"
       transform="matrix(0.96592583,-0.25881905,0.25881905,0.96592583,818.90686,569.45552)"
       id="g5594">
      <path
         inkscape:connector-curvature="0"
         style="opacity:1;fill:none;stroke:#000000;stroke-width:0.30121192"
         d="m -328.21432,-15.337706 1.64515,-1.155601 0.83063,-0.3217 3.33051,-0.01529 0.70847,1.535463 -2.15245,2.56848 -0.77778,0.43624 -1.93345,0.530763 0.38932,3.2469666 2.00143,0.036204 0.85775,0.2306795 2.69534,1.959183 -0.32469,1.6653103 -3.23523,0.8099308 -0.88197,-0.1064609 -1.86931,-0.7138871 -1.581,2.8651443 1.59324,1.21419579 0.55724,0.69494185 1.03063,3.18531116 -1.23382,1.1590783 -3.08226,-1.2579983 -0.64927,-0.608484 -1.09115,-1.68585069 -2.94744,1.38893239 0.57648,1.9283876 0.0439,0.8937625 -1.02773,3.1947625 -1.67169,0.2101089 -1.75197,-2.8453958 -0.16857,-0.8780993 0.10379,-2.0138803 -3.18805,-0.6178047 -0.66048,1.9060044 -0.48623,0.7512019 -2.69355,1.983922 -1.47102,-0.81911 0.24751,-3.3459657 0.37652,-0.8122979 1.25908,-1.57267818 -2.21094,-2.38855562 -1.64515,1.15560086 -0.83063,0.32170219 -3.33051,0.0152874 -0.70847,-1.53546435 2.15245,-2.5684795 0.77778,-0.4362397 1.93346,-0.5307626 -0.38933,-3.246968 -2.00143,-0.036207 -0.85775,-0.2306753 -2.69534,-1.9591863 0.32469,-1.665315 3.23523,-0.809926 0.88197,0.106457 1.86931,0.713886 1.581,-2.865145 -1.59324,-1.214189 -0.55724,-0.694942 -1.03063,-3.185315 1.23382,-1.159074 3.08226,1.257992 0.64927,0.608486 1.09115,1.685856 2.94744,-1.388937 -0.57648,-1.928385 -0.0439,-0.893767 1.02773,-3.194765 1.67169,-0.210103 1.75197,2.845396 0.16857,0.878096 -0.10379,2.013886 3.18806,0.617801 0.66047,-1.906009 0.48624,-0.751202 2.69354,-1.983918 1.47102,0.819114 -0.24751,3.345959 -0.37652,0.812302 -1.25908,1.572679 z"
         id="path5596" />
      <path
         style="opacity:1;fill:none;fill-rule:evenodd;stroke:#000000;stroke-width:0.30121192;stroke-linecap:butt;stroke-linejoin:miter;stroke-miterlimit:4;stroke-dasharray:none;stroke-dashoffset:1;stroke-opacity:1;marker-end:url(#marker7632)"
         d="m -503.43324,-57.896364 c 4.21062,-13.718786 16.47751,-22.182784 28.99054,-22.543896"
         id="path7446"
         inkscape:connector-curvature="0"
         sodipodi:nodetypes="cc" />
      <text
         xml:space="preserve"
         style="font-style:normal;font-weight:normal;font-size:12.04847813px;line-height:125%;font-family:sans-serif;letter-spacing:0px;word-spacing:0px;fill:#000000;fill-opacity:1;stroke:none;stroke-width:1px;stroke-linecap:butt;stroke-linejoin:miter;stroke-opacity:1"
         x="-476.18024"
         y="81.896278"
         id="text7664"
         sodipodi:linespacing="125%"
         transform="matrix(0.96197458,0.25776033,-0.25988213,0.9698933,0,0)"><tspan
           sodipodi:role="line"
           id="tspan7666"
           x="-476.18024"
           y="81.896278"
           style="font-size:12.5px">25</tspan></text>
      <text
         xml:space="preserve"
         style="font-style:normal;font-weight:normal;font-size:12.04847813px;line-height:125%;font-family:sans-serif;letter-spacing:0px;word-spacing:0px;fill:#000000;fill-opacity:1;stroke:none;stroke-width:1px;stroke-linecap:butt;stroke-linejoin:miter;stroke-opacity:1"
         x="-440.92383"
         y="107.23684"
         id="text7668"
         sodipodi:linespacing="125%"
         transform="matrix(0.96197458,0.25776033,-0.25988213,0.9698933,0,0)"><tspan
           sodipodi:role="line"
           id="tspan7670"
           x="-440.92383"
           y="107.23684"
           style="font-size:12.5px">10</tspan></text>
      <text
         xml:space="preserve"
         style="font-style:normal;font-weight:normal;font-size:12.04847813px;line-height:125%;font-family:sans-serif;letter-spacing:0px;word-spacing:0px;fill:#000000;fill-opacity:1;stroke:none;stroke-width:1px;stroke-linecap:butt;stroke-linejoin:miter;stroke-opacity:1"
         x="-402.51947"
         y="81.266701"
         id="text7672"
         sodipodi:linespacing="125%"
         transform="matrix(0.96197458,0.25776033,-0.25988213,0.9698933,0,0)"><tspan
           sodipodi:role="line"
           id="tspan7674"
           x="-402.51947"
           y="81.266701"
           style="font-size:12.5px">31</tspan></text>
      <text
         xml:space="preserve"
         style="font-style:normal;font-weight:normal;font-size:12.04847813px;line-height:125%;font-family:sans-serif;letter-spacing:0px;word-spacing:0px;fill:#000000;fill-opacity:1;stroke:none;stroke-width:1px;stroke-linecap:butt;stroke-linejoin:miter;stroke-opacity:1"
         x="-357.3472"
         y="104.24634"
         id="text7676"
         sodipodi:linespacing="125%"
         transform="matrix(0.96197458,0.25776033,-0.25988213,0.9698933,0,0)"><tspan
           sodipodi:role="line"
           id="tspan7678"
           x="-357.3472"
           y="104.24634"
           style="font-size:12.5px">6</tspan></text>
      <text
         xml:space="preserve"
         style="font-style:normal;font-weight:normal;font-size:12.04847813px;line-height:125%;font-family:sans-serif;letter-spacing:0px;word-spacing:0px;fill:#000000;fill-opacity:1;stroke:none;stroke-width:1px;stroke-linecap:butt;stroke-linejoin:miter;stroke-opacity:1"
         x="-337.67285"
         y="82.998032"
         id="text7680"
         sodipodi:linespacing="125%"
         transform="matrix(0.96197458,0.25776033,-0.25988213,0.9698933,0,0)"><tspan
           sodipodi:role="line"
           id="tspan7682"
           x="-337.67285"
           y="82.998032"
           style="font-size:12.5px">10</tspan></text>
    </g>
    <g
       id="g7332"
       transform="matrix(0.25979013,-0.15122458,0.1499899,0.26192865,370.19592,667.50721)"
       inkscape:label="Gear15">
      <path
         inkscape:connector-curvature="0"
         id="path7334"
         d="m 322.14807,160.59163 3.98109,-0.47851 3.37932,0.41804 7.57554,3.33733 0,4.80434 -7.57554,3.33733 -3.37932,0.41804 -3.98109,-0.47851 -1.77487,8.35011 3.83153,1.1821 2.91713,1.75641 5.56319,6.13005 -1.9541,4.38898 -8.27801,-0.0325 -3.25721,-0.99259 -3.44227,-2.0564 -5.01772,6.9063 3.01947,2.63833 1.95054,2.79106 2.58891,7.86283 -3.57032,3.21473 -7.54914,-3.39662 -2.57188,-2.2316 -2.30826,-3.27871 -7.39296,4.26833 1.68532,3.63837 0.64668,3.34311 -0.83301,8.23606 -4.5692,1.48462 -5.51496,-6.17348 -1.44186,-3.08474 -0.77512,-3.93411 -8.4899,0.89232 0.0598,4.0093 -0.76899,3.31712 -4.1109,7.18519 -4.77802,-0.50219 -2.52719,-7.88289 -0.0625,-3.40451 0.89203,-3.90926 -8.11884,-2.63797 -1.57614,3.68698 -2.0517,2.71756 -6.67798,4.89195 -4.16068,-2.40217 0.89756,-8.22928 1.32762,-3.1356 2.40496,-3.20847 -6.34398,-5.71214 -2.9395,2.72716 -2.97965,1.64811 -8.09038,1.75283 -2.82392,-3.88679 4.16711,-7.15274 2.48821,-2.32453 3.50204,-1.95289 -3.47218,-7.79863 -3.7946,1.29578 -3.39239,0.29369 -8.10387,-1.68936 -0.99888,-4.69935 6.71613,-4.83944 3.21856,-1.11152 3.99358,-0.35965 0,-8.53666 -3.99358,-0.35965 -3.21856,-1.11152 -6.71613,-4.83944 0.99888,-4.69935 8.10387,-1.68936 3.39239,0.29369 3.7946,1.29578 3.47218,-7.79863 -3.50204,-1.95289 -2.48821,-2.32453 -4.16711,-7.15274 2.82392,-3.88679 8.09038,1.75283 2.97965,1.64811 2.9395,2.72716 6.34398,-5.71214 -2.40496,-3.20847 -1.32762,-3.1356 -0.89756,-8.22928 4.16068,-2.40217 6.67798,4.89195 2.0517,2.71756 1.57614,3.68698 8.11884,-2.63797 -0.89203,-3.90926 0.0625,-3.40451 2.52719,-7.88289 4.77802,-0.50219 4.1109,7.18519 0.76899,3.31712 -0.0598,4.0093 8.4899,0.89232 0.77512,-3.93411 1.44186,-3.08474 5.51496,-6.17348 4.5692,1.48462 0.83301,8.23606 -0.64668,3.34311 -1.68532,3.63837 7.39296,4.26833 2.30826,-3.27871 2.57188,-2.2316 7.54914,-3.39662 3.57032,3.21473 -2.58891,7.86283 -1.95054,2.79106 -3.01947,2.63833 5.01772,6.9063 3.44227,-2.0564 3.25721,-0.99259 8.27801,-0.0324 1.9541,4.38898 -5.56319,6.13005 -2.91713,1.75641 -3.83153,1.1821 z"
         style="fill:none;stroke:#000000;stroke-width:1" />
    </g>
  </g>
</svg>
